<?xml version="1.0" standalone="no"?>
<!DOCTYPE svg PUBLIC "-//W3C//DTD SVG 20010904//EN"
 "http://www.w3.org/TR/2001/REC-SVG-20010904/DTD/svg10.dtd">
<svg version="1.0" xmlns="http://www.w3.org/2000/svg"
 width="561.000000pt" height="561.000000pt" viewBox="0 0 561.000000 561.000000"
 preserveAspectRatio="xMidYMid meet">
<metadata>
Created by potrace 1.14, written by Peter Selinger 2001-2017
</metadata>
<g transform="translate(0.000000,561.000000) scale(0.100000,-0.100000)"
fill="#000000" stroke="none">
<path d="M2801 4639 c-26 -29 -28 -89 -3 -112 20 -18 50 -26 117 -31 260 -20
555 -130 784 -294 86 -61 239 -202 301 -277 172 -207 300 -475 345 -720 8 -44
17 -93 20 -110 11 -54 13 -298 4 -380 -66 -597 -445 -1103 -999 -1332 -85 -36
-233 -79 -300 -88 -24 -4 -48 -9 -52 -11 -25 -16 -328 -24 -440 -11 -252 27
-529 130 -733 271 -192 132 -384 338 -484 516 -123 220 -196 450 -216 675 -9
104 -14 123 -38 140 -33 23 -74 19 -104 -11 -24 -24 -25 -28 -19 -117 6 -97 8
-110 32 -222 8 -38 17 -80 20 -93 12 -57 70 -216 112 -302 44 -93 141 -257
166 -282 7 -7 17 -20 22 -29 15 -27 86 -109 149 -174 278 -285 672 -480 1055
-523 81 -9 356 -9 430 0 188 22 406 89 584 179 101 51 244 139 282 174 6 5 26
21 44 35 76 57 258 249 313 330 71 105 112 169 124 195 7 17 18 37 23 45 11
18 70 147 70 154 0 3 5 17 12 33 6 15 12 30 13 33 1 3 11 38 24 79 12 41 24
81 26 90 2 9 10 52 19 95 34 160 39 429 12 586 -3 14 -7 41 -10 60 -3 19 -13
62 -22 95 -8 33 -17 67 -19 75 -8 32 -46 147 -59 175 -8 17 -24 53 -36 80 -54
121 -176 312 -268 417 -135 155 -323 304 -502 400 -221 118 -458 187 -696 204
-76 6 -83 5 -103 -17z"/>
<path d="M2823 4359 c-12 -4 -29 -22 -38 -40 -14 -26 -15 -36 -4 -60 15 -37
32 -46 95 -54 103 -12 182 -28 309 -66 59 -17 216 -92 268 -128 25 -17 48 -31
52 -31 4 0 12 -6 19 -12 7 -7 28 -24 47 -38 179 -131 356 -378 437 -610 55
-157 67 -236 66 -445 0 -165 -3 -201 -23 -275 -12 -47 -25 -96 -27 -110 -3
-14 -9 -29 -15 -34 -5 -6 -9 -17 -9 -25 0 -24 -60 -150 -113 -236 -74 -121
-147 -207 -269 -319 -133 -121 -338 -225 -549 -280 -104 -27 -230 -39 -369
-33 -201 8 -336 41 -515 127 -125 61 -198 108 -302 198 -87 76 -118 91 -153
72 -25 -13 -50 -67 -42 -89 8 -26 72 -89 158 -156 204 -161 435 -262 689 -300
75 -12 110 -14 225 -14 252 -1 457 47 676 159 231 117 426 290 572 506 55 82
139 249 148 294 2 8 8 23 13 35 14 27 60 208 67 264 12 92 13 118 14 226 0
137 -4 178 -30 302 -26 124 -20 103 -78 253 -50 131 -136 275 -237 399 -11 14
-59 62 -106 109 -207 202 -468 339 -746 391 -134 26 -202 31 -230 20z"/>
<path d="M2801 4042 c-24 -23 -29 -36 -25 -58 7 -38 33 -64 69 -68 113 -15
276 -57 303 -78 6 -6 12 -8 12 -5 0 9 103 -48 183 -101 137 -89 283 -264 356
-425 17 -38 43 -112 58 -165 23 -86 26 -115 26 -257 0 -140 -3 -172 -26 -257
-76 -285 -262 -522 -517 -656 -73 -38 -194 -84 -255 -96 -68 -14 -82 -16 -154
-21 -65 -5 -79 -9 -98 -31 -31 -34 -30 -79 2 -108 21 -20 34 -23 83 -21 111 5
195 22 307 62 39 14 80 27 93 30 12 3 22 9 22 14 0 5 7 9 15 9 16 0 87 40 179
102 76 51 227 202 287 288 44 63 130 224 141 265 2 11 6 25 7 30 2 6 8 24 15
40 11 27 26 82 32 125 18 116 21 162 19 260 -9 374 -192 716 -500 935 -163
116 -369 197 -542 212 -59 5 -64 4 -92 -25z"/>
<path d="M2678 3635 c-2 -2 -22 -5 -46 -9 -24 -3 -62 -11 -85 -18 -23 -6 -44
-12 -47 -13 -3 0 -39 -17 -80 -38 -248 -122 -408 -375 -414 -657 -1 -52 1
-111 5 -130 4 -19 10 -46 13 -60 11 -58 69 -197 98 -235 58 -77 120 -144 166
-181 54 -43 199 -121 239 -128 10 -2 38 -10 63 -17 101 -28 305 -17 415 22 69
25 176 84 225 124 66 54 150 155 193 232 26 47 67 159 73 201 3 20 7 43 10 51
7 20 6 179 -1 216 -14 73 -39 154 -63 205 -105 225 -311 383 -557 427 -66 11
-198 16 -207 8z"/>
</g>
</svg>
